<svg xmlns="http://www.w3.org/2000/svg" viewBox="0 0 2752 2064">
<path d="M1475.50,1818.20C1505.12,1804.31 1550.17,1785.85 1581.00,1774.95C1584.58,1773.69 1587.64,1772.55 1587.81,1772.43C1587.99,1772.31 1584.13,1765.97 1579.24,1758.35C1491.26,1621.21 1438.69,1467.02 1428.94,1317.50C1427.54,1295.90 1427.56,1237.98 1428.98,1214.50C1432.15,1162.43 1441.88,1088.53 1450.33,1052.50C1451.71,1046.63 1451.75,1046.57 1452.33,1050.00C1452.65,1051.92 1453.64,1060.03 1454.52,1068.00C1460.25,1119.55 1472.38,1161.39 1491.03,1193.98C1506.34,1220.73 1525.98,1240.30 1543.81,1246.60C1551.87,1249.44 1564.83,1249.83 1572.76,1247.48C1598.99,1239.69 1621.24,1198.64 1630.21,1141.50C1632.10,1129.46 1632.41,1123.37 1632.43,1098.00C1632.47,1066.34 1631.41,1052.09 1627.41,1030.00C1618.47,980.67 1608.87,950.88 1589.37,912.00C1578.11,889.54 1566.82,871.17 1553.29,853.26C1541.75,838.00 1541.91,838.42 1549.00,842.00C1567.62,851.40 1583.49,855.70 1595.26,854.54C1614.90,852.61 1631.64,843.26 1652.07,822.83C1674.40,800.50 1694.99,768.29 1730.14,700.69L1744.09,673.87L1736.20,662.19C1713.75,628.93 1698.26,595.30 1687.51,556.50C1685.68,549.90 1683.97,545.17 1683.70,546.00C1683.43,546.83 1679.74,561.90 1675.48,579.50C1657.29,654.77 1646.81,686.55 1633.63,706.35C1621.27,724.92 1605.50,734.86 1585.13,736.93C1562.31,739.24 1537.29,732.36 1510.80,716.48C1496.71,708.04 1485.69,700.25 1461.50,681.63C1438.41,663.86 1435.89,662.49 1426.50,662.54C1413.42,662.61 1403.16,669.17 1380.56,691.89L1366.62,705.91L1373.37,727.20C1377.09,738.92 1380.66,750.03 1381.31,751.89C1382.48,755.22 1382.86,755.41 1401.00,761.51C1411.18,764.93 1420.74,768.23 1422.25,768.84L1425.00,769.95L1424.99,783.23C1424.97,805.51 1421.93,833.04 1416.42,860.87C1413.66,874.78 1399.47,934.39 1398.20,937.38C1397.56,938.90 1396.69,937.71 1393.82,931.38C1382.15,905.71 1374.92,878.10 1371.47,846.00C1369.95,831.83 1369.60,785.55 1370.84,762.15C1371.21,755.36 1371.28,749.67 1371.00,749.50C1370.72,749.33 1364.65,748.17 1357.50,746.91C1341.17,744.05 1314.76,743.76 1300.04,746.29C1294.84,747.18 1290.37,747.70 1290.11,747.44C1289.85,747.18 1292.55,738.21 1296.11,727.51L1302.58,708.04L1299.04,708.54C1297.09,708.81 1288.97,709.94 1281.00,711.06C1243.18,716.35 1211.94,725.02 1188.65,736.69C1183.78,739.13 1179.58,740.91 1179.31,740.64C1179.05,740.38 1181.79,724.72 1185.41,705.83C1194.60,657.93 1196.03,648.03 1196.69,628.00C1197.47,604.24 1195.61,590.91 1189.32,575.11C1178.99,549.18 1158.64,536.37 1137.42,542.46C1118.55,547.87 1090.61,570.83 1075.88,593.03C1062.13,613.76 1050.74,642.32 1041.40,679.49C1036.65,698.40 1036.50,698.05 1038.01,671.36C1040.63,625.07 1044.35,586.59 1052.43,522.00C1061.76,447.54 1063.52,424.75 1062.71,389.00C1062.10,362.02 1060.04,345.06 1055.49,329.50C1048.14,304.31 1039.12,292.01 1022.36,284.29C1014.02,280.45 1000.90,279.87 991.70,282.93C956.28,294.72 922.30,344.51 896.53,422.38C885.30,456.31 874.66,501.20 870.54,532.06L869.94,536.61L863.96,533.75C860.68,532.17 853.61,529.73 848.25,528.31C839.69,526.05 836.43,525.73 821.50,525.67C802.90,525.59 793.40,526.93 775.82,532.12C733.17,544.71 701.63,570.13 675.73,612.81C645.30,662.94 621.47,744.43 612.80,828.00C611.96,836.06 611.51,854.54 611.53,880.00C611.56,923.01 612.33,933.25 618.03,966.50C626.32,1014.88 645.87,1074.52 672.71,1133.32C675.18,1138.72 676.98,1143.35 676.72,1143.62C675.52,1144.81 654.73,1155.97 637.00,1164.93C546.65,1210.61 464.22,1236.40 371.15,1248.11L361.81,1249.29L362.42,1252.34C363.00,1255.27 370.02,1311.52 375.78,1359.50L378.55,1382.50L385.02,1382.25C404.66,1381.50 450.68,1370.48 485.50,1358.20C576.06,1326.25 652.03,1275.95 705.90,1212.25C711.59,1205.51 716.54,1200.03 716.88,1200.06C717.22,1200.09 719.75,1202.82 722.50,1206.13C729.34,1214.37 746.13,1230.36 757.82,1239.75C792.08,1267.31 826.10,1280.84 851.93,1277.19C870.12,1274.62 887.44,1264.67 906.10,1246.06C919.07,1233.15 923.86,1226.56 931.56,1211.09C939.88,1194.38 945.48,1176.93 950.52,1152.00L952.84,1140.50L952.94,1160.50C953.06,1186.19 954.70,1241.49 956.01,1264.00C957.31,1286.25 964.81,1380.76 965.51,1383.75C965.80,1384.99 966.44,1386.00 966.93,1386.00C967.42,1386.00 970.29,1382.29 973.32,1377.75C988.20,1355.47 1016.32,1329.91 1055.00,1303.51C1061.33,1299.19 1067.24,1295.04 1068.14,1294.27C1069.64,1293.01 1069.33,1291.75 1064.49,1279.69C1054.16,1253.93 1037.69,1201.98 1039.33,1200.34C1039.69,1199.98 1046.63,1200.46 1054.74,1201.40C1108.57,1207.69 1147.55,1221.30 1192.54,1249.55C1199.07,1253.65 1203.70,1255.94 1204.68,1255.57C1206.70,1254.79 1206.36,1250.68 1201.59,1218.50C1197.13,1188.49 1195.25,1168.79 1194.50,1144.50L1193.91,1125.50L1198.34,1138.50C1204.12,1155.43 1211.76,1173.29 1217.09,1182.30C1222.21,1190.96 1232.80,1201.81 1239.03,1204.80C1249.50,1209.81 1259.29,1209.57 1270.50,1204.02C1278.52,1200.06 1285.15,1194.16 1292.04,1184.87C1298.19,1176.57 1306.98,1160.02 1311.61,1148.01L1314.50,1140.51L1315.17,1147.51C1316.28,1159.15 1318.03,1188.11 1318.01,1194.57C1317.98,1211.18 1312.82,1228.82 1294.23,1276.00C1273.43,1328.77 1263.74,1357.30 1255.00,1391.50C1237.87,1458.53 1235.95,1517.17 1249.69,1553.96C1259.84,1581.16 1272.71,1599.34 1320.51,1654.00C1370.02,1710.63 1396.22,1743.61 1441.50,1806.26C1449.75,1817.68 1456.95,1826.83 1457.50,1826.59C1458.05,1826.36 1466.15,1822.58 1475.50,1818.20ZM1388.95,1536.33C1380.52,1532.20 1369.50,1520.41 1363.85,1509.49C1358.36,1498.88 1353.91,1485.37 1351.35,1471.50C1349.79,1463.03 1349.51,1456.37 1349.53,1428.00C1349.54,1409.58 1350.16,1385.90 1350.91,1375.39L1352.26,1356.27L1358.88,1348.46L1365.50,1340.65L1366.23,1350.57C1368.22,1377.41 1375.69,1416.88 1388.46,1468.00C1402.37,1523.67 1403.33,1528.89 1400.90,1535.85C1399.50,1539.88 1396.44,1540.01 1388.95,1536.33ZM2217.00,1345.35C2234.88,1341.82 2248.15,1335.56 2258.04,1325.98C2268.27,1316.07 2269.89,1311.15 2288.53,1233.50C2299.76,1186.73 2314.45,1138.76 2332.05,1091.43C2347.11,1050.94 2365.67,1010.34 2382.35,981.41L2389.90,968.33L2386.44,949.91C2378.25,906.38 2369.77,851.45 2366.11,818.18C2365.05,808.66 2363.98,800.65 2363.72,800.39C2362.75,799.42 2328.85,848.14 2311.81,875.00C2292.95,904.73 2281.65,924.51 2259.03,967.42C2244.17,995.61 2238.68,1005.00 2237.05,1005.00C2235.19,1005.00 2234.19,1001.45 2233.49,992.49C2231.64,968.77 2241.25,897.97 2261.50,786.00C2277.39,698.12 2279.04,686.38 2279.73,656.00C2280.67,614.32 2275.00,593.06 2259.13,578.80C2245.18,566.27 2225.84,566.52 2200.54,579.56C2179.03,590.64 2138.59,619.93 2108.55,646.17C2105.21,649.09 2103.85,649.85 2104.36,648.50C2106.74,642.32 2114.76,615.19 2118.54,600.50C2140.40,515.78 2138.87,428.75 2113.44,310.70C2105.09,271.95 2103.04,260.93 2098.96,233.11C2094.92,205.57 2091.52,188.13 2087.89,176.38L2085.97,170.17L2068.74,174.65C2022.70,186.62 1980.76,201.00 1979.62,205.20C1979.43,205.91 1978.32,213.50 1977.16,222.06C1972.67,255.02 1960.59,308.43 1945.89,360.31C1933.63,403.57 1930.12,417.45 1925.62,440.50C1911.95,510.56 1908.64,576.98 1915.53,643.00C1921.02,695.65 1940.35,776.09 1956.66,814.18L1962.09,826.87L1957.04,845.18C1950.52,868.86 1946.41,887.20 1944.35,901.91L1942.70,913.70L1936.92,910.72C1930.37,907.34 1927.93,907.50 1923.02,911.63C1912.17,920.77 1904.31,955.73 1896.99,1027.50C1895.82,1039.05 1894.68,1049.05 1894.47,1049.72C1893.83,1051.77 1885.31,1048.57 1877.84,1043.46C1856.48,1028.87 1839.32,999.51 1823.15,949.93C1806.27,898.18 1798.62,850.85 1797.32,790.00C1796.54,753.51 1798.71,720.29 1802.72,707.31C1809.82,684.35 1828.44,699.97 1860.44,755.75C1865.26,764.14 1869.58,770.76 1870.04,770.47C1870.51,770.19 1881.93,753.42 1895.43,733.23L1919.96,696.50L1904.95,647.50C1896.69,620.55 1885.42,583.20 1879.90,564.50C1874.37,545.80 1869.55,530.23 1869.18,529.89C1868.02,528.85 1824.60,533.04 1823.30,534.32C1821.37,536.23 1804.61,569.40 1798.45,583.50C1766.79,656.04 1742.36,747.67 1734.60,823.00C1730.45,863.28 1729.93,924.89 1733.44,961.50C1742.04,1051.16 1767.23,1143.05 1799.25,1201.50C1820.54,1240.36 1844.34,1266.05 1866.57,1274.20C1874.92,1277.25 1887.14,1277.24 1896.19,1274.15C1917.92,1266.76 1936.98,1244.94 1956.12,1205.56C1959.31,1199.00 1962.13,1194.27 1962.38,1195.06C1962.63,1195.85 1963.61,1201.00 1964.55,1206.50C1967.69,1224.89 1977.54,1260.98 1979.81,1262.38C1980.99,1263.11 2018.79,1232.50 2034.80,1217.84C2059.15,1195.56 2078.98,1172.76 2094.20,1149.53C2103.15,1135.89 2113.23,1116.81 2112.53,1114.83C2111.63,1112.27 2106.10,1065.33 2104.36,1045.50C2102.20,1020.94 2101.88,959.79 2103.82,942.00C2105.96,922.25 2108.93,903.49 2111.52,893.30C2114.41,881.94 2120.32,869.53 2124.19,866.68C2126.74,864.80 2127.03,864.79 2129.43,866.36C2135.89,870.59 2138.62,881.27 2140.13,908.21C2141.37,930.21 2140.12,991.35 2137.45,1039.00C2131.58,1143.84 2136.48,1199.14 2157.08,1260.23C2166.44,1288.00 2180.84,1318.97 2193.82,1339.22L2199.50,1348.08L2204.50,1347.45C2207.25,1347.11 2212.88,1346.16 2217.00,1345.35ZM859.62,1152.91C849.99,1150.59 836.18,1140.72 827.35,1129.83C821.40,1122.50 813.75,1110.43 808.70,1100.39L805.16,1093.38L812.23,1082.44C839.10,1040.86 866.54,989.87 885.35,946.59L891.82,931.69L895.01,942.09C899.12,955.46 905.82,972.46 912.71,987.00L918.17,998.50L916.51,1013.00C911.30,1058.65 898.30,1114.56 888.25,1134.50C880.59,1149.73 871.28,1155.71 859.62,1152.91ZM1026.18,1138.32C1020.85,1101.79 1018.82,1064.11 1020.09,1025.50C1022.15,963.01 1032.72,910.00 1054.11,854.95C1056.79,848.05 1059.59,841.57 1060.34,840.55C1066.05,832.75 1065.31,853.34 1056.96,935.50C1050.34,1000.55 1038.97,1090.77 1030.43,1146.00C1029.11,1154.51 1028.34,1153.11 1026.18,1138.32ZM1700.12,1130.83C1704.30,1126.23 1710.05,1119.40 1712.89,1115.65C1722.79,1102.57 1724.97,1096.20 1725.71,1078.26C1726.34,1063.17 1726.82,1064.40 1715.35,1052.01C1710.50,1046.78 1709.31,1046.00 1706.14,1046.01C1696.20,1046.03 1681.02,1050.18 1670.74,1055.69C1663.62,1059.51 1662.53,1062.63 1662.57,1079.00C1662.60,1090.77 1662.82,1092.15 1666.34,1102.50C1671.77,1118.49 1677.41,1129.30 1683.63,1135.68C1687.93,1140.08 1689.27,1140.93 1690.72,1140.15C1691.70,1139.63 1695.93,1135.43 1700.12,1130.83ZM1536.50,1110.61C1534.85,1109.89 1532.99,1108.68 1532.38,1107.90C1530.99,1106.18 1522.38,1078.25 1517.59,1060.00C1510.83,1034.17 1505.74,1004.11 1504.17,980.62L1503.44,969.73L1508.47,965.98C1511.24,963.91 1515.30,961.32 1517.50,960.22C1521.18,958.38 1531.31,955.00 1533.14,955.00C1534.39,955.00 1541.43,965.87 1546.79,976.08L1551.73,985.50L1554.38,1007.50C1558.28,1039.96 1559.29,1054.93 1558.59,1070.00C1557.56,1092.08 1553.43,1105.94 1546.64,1110.08C1542.99,1112.30 1540.66,1112.43 1536.50,1110.61ZM788.16,1015.25C778.36,975.46 772.12,940.07 768.37,903.00C766.04,879.95 766.05,835.69 768.38,815.50C773.03,775.42 782.02,740.53 793.78,716.96L798.50,707.50L803.97,706.64C810.81,705.56 821.60,707.22 828.63,710.44C835.57,713.61 847.90,725.53 854.52,735.48C869.66,758.24 877.20,792.20 874.08,823.55C869.85,865.95 849.21,929.85 823.86,979.00C815.70,994.83 793.99,1031.99 792.89,1032.00C792.56,1032.00 790.43,1024.46 788.16,1015.25ZM1274.62,970.45C1272.48,964.88 1268.18,924.77 1267.39,903.00C1266.76,885.82 1268.36,849.96 1269.88,847.25C1270.74,845.71 1276.16,873.49 1279.57,896.93C1284.66,931.87 1284.82,956.84 1280.03,967.65C1278.09,972.06 1275.71,973.28 1274.62,970.45ZM1172.19,876.74C1168.88,856.53 1167.81,837.14 1168.96,818.11C1169.51,809.09 1170.12,801.55 1170.32,801.35C1170.52,801.14 1170.97,812.57 1171.32,826.74C1171.67,840.91 1172.64,860.78 1173.49,870.90C1174.34,881.02 1174.88,889.45 1174.70,889.64C1174.51,889.82 1173.38,884.02 1172.19,876.74ZM962.16,741.26C955.20,693.74 948.81,664.18 939.36,635.80L934.69,621.75L938.41,605.30C946.11,571.29 955.16,541.63 962.46,526.50C971.51,507.74 976.75,507.30 979.15,525.09C980.96,538.54 980.67,597.60 978.64,625.50C974.64,680.65 968.13,751.30 966.17,760.76C965.68,763.15 964.61,757.97 962.16,741.26ZM2034.36,676.84C2032.18,674.03 2022.88,656.99 2019.64,649.88C2009.33,627.25 2001.32,597.32 1997.47,567.00C1995.50,551.52 1994.48,514.43 1995.47,494.73L1996.21,479.95L2005.71,469.23C2010.93,463.33 2015.76,457.91 2016.44,457.20C2017.44,456.15 2018.90,458.78 2023.94,470.70C2027.39,478.84 2031.92,490.68 2034.01,497.00C2048.17,539.81 2049.84,596.89 2038.85,662.00C2036.32,676.99 2035.80,678.71 2034.36,676.84Z" fill="#fff" fill-rule="evenodd"/>
</svg>